<?xml version="1.0" encoding="UTF-8" standalone="no"?>
<!DOCTYPE svg PUBLIC "-//W3C//DTD SVG 1.1//EN" "http://www.w3.org/Graphics/SVG/1.1/DTD/svg11.dtd">
<svg width="100%" height="100%" viewBox="0 0 305 146" version="1.1" xmlns="http://www.w3.org/2000/svg" xmlns:xlink="http://www.w3.org/1999/xlink" xml:space="preserve" xmlns:serif="http://www.serif.com/" style="fill-rule:evenodd;clip-rule:evenodd;stroke-linejoin:round;stroke-miterlimit:2;">
    <g transform="matrix(4.16667,0,0,4.16667,-72.6067,-171.884)">
        <path d="M43.008,41.505C40.932,41.505 38.865,42.005 36.867,42.987L36.516,43.16L36.265,43.284L33.066,44.868L35.121,47.789L41.709,57.143L33.79,60.048C32.651,59.377 30.361,58.032 29.398,57.492C28.858,57.185 27.666,56.665 25.845,56.665C24.483,56.665 23.049,56.957 21.582,57.533L17.784,59.023L20.278,62.251C21.138,63.365 25.46,68.957 26.138,69.778C27.914,71.925 30.147,72.174 31.671,72.174C33.813,72.174 36.543,71.582 40.52,70.256C48.216,67.692 84.523,53.936 86.065,53.353L90,51.861L87.368,48.578C87.192,48.356 86.206,47.191 84.166,45.898C83.711,45.604 82.272,44.678 80.235,44.273C79.521,44.132 78.855,44.066 78.135,44.066C76.283,44.066 74.13,44.522 71.363,45.498C68.111,46.645 63.736,48.3 61.555,49.131L47.779,42.495C47.38,42.299 45.599,41.505 43.008,41.505ZM43.008,44.566C45.059,44.566 46.393,45.223 46.439,45.246L60.821,52.175C61.029,52.276 61.257,52.326 61.484,52.326C61.669,52.326 61.854,52.291 62.031,52.225C62.093,52.202 68.212,49.853 72.381,48.385C74.777,47.538 76.659,47.127 78.135,47.127C78.651,47.127 79.128,47.174 79.639,47.275C81.098,47.564 82.131,48.228 82.528,48.482C84.241,49.567 84.981,50.491 84.981,50.491C84.981,50.491 47.278,64.779 39.552,67.352C35.949,68.555 33.444,69.114 31.671,69.114C30.173,69.114 29.253,68.742 28.497,67.827C27.979,67.202 24.927,63.265 22.7,60.381C23.801,59.949 24.869,59.725 25.845,59.725C27,59.725 27.669,60.03 27.9,60.159C29.202,60.89 32.823,63.03 32.859,63.051C33.097,63.192 33.367,63.263 33.638,63.263C33.814,63.263 33.992,63.234 34.163,63.171L44.637,59.328C45.082,59.165 45.426,58.803 45.568,58.349C45.71,57.895 45.633,57.402 45.359,57.012L37.624,46.025C37.804,45.937 38.001,45.84 38.218,45.733C39.792,44.958 41.404,44.566 43.008,44.566Z" style="fill:rgb(43,118,188);fill-rule:nonzero;"/>
    </g>
</svg>
