<?xml version="1.0" encoding="UTF-8" standalone="no"?>
<!DOCTYPE svg PUBLIC "-//W3C//DTD SVG 1.1//EN" "http://www.w3.org/Graphics/SVG/1.1/DTD/svg11.dtd">
<svg width="100%" height="100%" viewBox="0 0 834 500" version="1.1" xmlns="http://www.w3.org/2000/svg" xmlns:xlink="http://www.w3.org/1999/xlink" xml:space="preserve" xmlns:serif="http://www.serif.com/" style="fill-rule:evenodd;clip-rule:evenodd;stroke-linejoin:round;stroke-miterlimit:2;">
    <g transform="matrix(4.16667,0,0,4.16667,0,-166.667)">
        <path d="M186.76,109.41C180.41,112.3 173.61,112.78 165.41,110.91L165.41,93.11C173.79,91.34 180.65,91.891 186.94,94.84C190.4,96.47 192.07,98.871 192.06,102.2C192.05,105.44 190.32,107.8 186.76,109.41ZM157,84.55C156.78,88.73 156.83,92.98 156.87,97.09C156.89,98.86 156.92,100.62 156.92,102.38C156.92,104.03 156.93,105.68 156.95,107.33C157,111.38 157.04,115.57 156.8,119.66C156.68,121.62 155.72,123.9 154.51,125.09C139.24,140.04 122.92,148 104.63,149.43C90.15,150.56 75.79,146.52 61.94,137.44C56.309,133.74 51.049,129.14 46.139,124.74C44.889,123.62 43.879,121.28 43.839,119.42C43.71,112.95 43.719,106.36 43.719,99.991C43.73,94.701 43.74,89.23 43.66,83.851C43.62,80.741 44.41,79.891 47.519,79.741C59.58,79.141 69.54,74.4 77.129,65.67C79.009,63.5 81.25,60.96 83.69,58.5C88.71,53.451 94.5,50.78 100.44,50.78L100.56,50.78C106.52,50.82 112.3,53.54 117.27,58.661C119.08,60.51 120.81,62.51 122.49,64.451C123.01,65.05 123.53,65.65 124.05,66.25C131.45,74.72 141.03,79.241 152.52,79.69C154.44,79.77 155.62,80.121 156.25,80.811C156.86,81.48 157.1,82.67 157,84.55ZM35.48,109.03C35.45,109.64 34.44,110.98 33.96,111.2L32.66,111.14C26.66,110.88 20.45,110.62 14.54,109.5C11.19,108.87 8.94,106.11 8.809,102.46C8.7,98.871 10.53,96.3 14.41,94.601C18.21,92.94 22.24,92.11 26.599,92.11C29.45,92.11 32.44,92.47 35.599,93.17C35.599,94.431 35.61,95.681 35.61,96.911C35.639,101.1 35.669,105.06 35.48,109.03ZM183.14,85.03C178.94,84.311 174.59,84.19 170.38,84.081C168.76,84.03 167.09,83.991 165.44,83.911C164.23,73.69 162.8,72.601 151.34,71.48C143.61,70.73 137.06,67.63 131.86,62.29C130.31,60.701 128.8,59.01 127.34,57.38C125.48,55.311 123.56,53.181 121.54,51.19C110.07,39.891 91.419,39.911 79.98,51.22C78.07,53.121 76.25,55.161 74.49,57.13C73.32,58.431 72.12,59.78 70.91,61.07C64.73,67.621 57.469,71.121 49.309,71.491C44.099,71.71 40.519,73.03 38.36,75.51C36.49,77.67 35.75,80.601 36.099,84.491C36.059,84.54 36.019,84.601 35.98,84.661C35.46,84.561 34.929,84.451 34.389,84.391C22.98,83.07 14.71,84.621 7.599,89.411C3.209,92.36 0.549,97.09 0.48,102.05C0.419,106.78 2.679,111.14 6.69,114.02C10.349,116.64 15.269,118.56 21.32,119.73C24.769,120.39 28.37,120.23 31.849,120.08C33.019,120.02 34.23,119.97 35.41,119.95C35.82,125.83 36.11,126.33 40.629,130.72C59.03,148.55 78.509,157.24 100.12,157.24C100.94,157.24 101.77,157.23 102.59,157.2C122.39,156.6 140.52,148.46 158.02,132.32L158.76,131.65C162.02,128.67 165.68,125.33 164.59,119.48C173.07,120.35 181.32,120.64 189.14,116.92C195.25,114 198.47,110.14 199.28,104.77C200.84,94.431 194.81,87.05 183.14,85.03Z" style="fill:white;fill-rule:nonzero;"/>
        <path d="M126.05,81.02L126.05,81.59C126.05,82.831 125.36,83.96 124.24,84.53C123.77,84.76 123.26,84.88 122.76,84.88C122.07,84.88 121.39,84.67 120.82,84.241C117.85,82.07 115.11,79.51 112.68,76.63C112.14,75.991 111.61,75.351 111.08,74.71C109.56,72.88 107.99,70.991 106.34,69.26C104.3,67.11 102.18,66.04 100.13,66.07C98.049,66.09 96,67.22 94.03,69.4C93.11,70.42 92.25,71.54 91.41,72.61C90.9,73.26 90.389,73.911 89.87,74.55C87.07,77.97 83.879,81.02 80.41,83.59C79.419,84.32 78.129,84.431 77.04,83.88C75.95,83.34 75.28,82.241 75.28,81.02L75.28,80.641C75.28,78.63 76.169,76.72 77.73,75.411C81.03,72.641 84.15,69.29 86.98,65.47C90.83,60.25 95.259,57.84 100.54,58.101C100.69,58.101 100.84,58.09 100.99,58.09C105.95,58.09 110.01,60.181 112.82,64.15C115.91,68.54 119.47,72.351 123.38,75.48C125.08,76.851 126.05,78.871 126.05,81.02Z" style="fill:white;fill-rule:nonzero;"/>
    </g>
</svg>
