<?xml version="1.0" encoding="UTF-8" standalone="no"?>
<!DOCTYPE svg PUBLIC "-//W3C//DTD SVG 1.1//EN" "http://www.w3.org/Graphics/SVG/1.1/DTD/svg11.dtd">
<svg width="100%" height="100%" viewBox="0 0 70 70" version="1.1" xmlns="http://www.w3.org/2000/svg" xmlns:xlink="http://www.w3.org/1999/xlink" xml:space="preserve" xmlns:serif="http://www.serif.com/" style="fill-rule:evenodd;clip-rule:evenodd;stroke-linejoin:round;stroke-miterlimit:2;">
    <g transform="matrix(1,0,0,1,-306.16,-309.059)">
        <g transform="matrix(153.722,0,0,153.722,306.054,412.201)">
            <path d="M0.36,-0.3C0.395,-0.3 0.424,-0.367 0.424,-0.396C0.424,-0.415 0.409,-0.425 0.378,-0.425C0.351,-0.425 0.341,-0.421 0.318,-0.421C0.292,-0.421 0.279,-0.428 0.279,-0.442C0.279,-0.456 0.292,-0.463 0.318,-0.463C0.341,-0.463 0.351,-0.459 0.378,-0.459C0.409,-0.459 0.424,-0.469 0.424,-0.488C0.424,-0.517 0.395,-0.584 0.36,-0.584C0.348,-0.584 0.331,-0.566 0.31,-0.531C0.289,-0.496 0.277,-0.478 0.264,-0.478C0.252,-0.478 0.245,-0.486 0.245,-0.493C0.245,-0.514 0.259,-0.524 0.283,-0.561C0.295,-0.579 0.301,-0.595 0.301,-0.608C0.301,-0.629 0.276,-0.639 0.225,-0.639C0.174,-0.639 0.149,-0.629 0.149,-0.608C0.149,-0.595 0.155,-0.579 0.167,-0.561C0.191,-0.524 0.205,-0.514 0.205,-0.493C0.205,-0.486 0.198,-0.478 0.186,-0.478C0.173,-0.478 0.161,-0.496 0.14,-0.531C0.119,-0.566 0.102,-0.584 0.09,-0.584C0.055,-0.584 0.026,-0.517 0.026,-0.488C0.026,-0.469 0.041,-0.459 0.072,-0.459C0.099,-0.459 0.109,-0.463 0.132,-0.463C0.158,-0.463 0.171,-0.456 0.171,-0.442C0.171,-0.428 0.158,-0.421 0.132,-0.421C0.109,-0.421 0.099,-0.425 0.072,-0.425C0.041,-0.425 0.026,-0.415 0.026,-0.396C0.026,-0.367 0.055,-0.3 0.09,-0.3C0.102,-0.3 0.119,-0.318 0.14,-0.353C0.161,-0.388 0.173,-0.406 0.186,-0.406C0.198,-0.406 0.205,-0.398 0.205,-0.391C0.205,-0.37 0.191,-0.36 0.167,-0.323C0.155,-0.305 0.149,-0.289 0.149,-0.276C0.149,-0.255 0.174,-0.245 0.225,-0.245C0.276,-0.245 0.301,-0.255 0.301,-0.276C0.301,-0.289 0.295,-0.305 0.283,-0.323C0.259,-0.36 0.245,-0.37 0.245,-0.391C0.245,-0.398 0.252,-0.406 0.264,-0.406C0.277,-0.406 0.289,-0.388 0.31,-0.353C0.331,-0.318 0.348,-0.3 0.36,-0.3Z" style="fill:rgb(195,0,25);fill-rule:nonzero;"/>
        </g>
    </g>
</svg>
