<?xml version="1.0" encoding="UTF-8" standalone="no"?>
<!DOCTYPE svg PUBLIC "-//W3C//DTD SVG 1.1//EN" "http://www.w3.org/Graphics/SVG/1.1/DTD/svg11.dtd">
<svg width="100%" height="100%" viewBox="0 0 159 246" version="1.1" xmlns="http://www.w3.org/2000/svg" xmlns:xlink="http://www.w3.org/1999/xlink" xml:space="preserve" xmlns:serif="http://www.serif.com/" style="fill-rule:evenodd;clip-rule:evenodd;stroke-linejoin:round;stroke-miterlimit:2;">
    <g transform="matrix(4.16667,0,0,4.16667,-145.833,-102.083)">
        <g transform="matrix(1,0,0,1,0,0.24)">
            <path d="M68.231,56.94L39.167,56.94L39.167,39.213L39.17,39.213L39.17,31.987C39.17,29.957 40.818,28.307 42.847,28.307L42.847,28.309L64.553,28.309L64.553,28.307C66.581,28.307 68.23,29.957 68.23,31.987L68.23,39.213L68.231,39.213L68.231,56.94ZM68.231,75.623C68.231,77.651 66.581,79.299 64.555,79.303L64.555,79.299L42.847,79.299L42.847,79.303C40.82,79.299 39.17,77.651 39.17,75.623L39.17,68.395L39.167,68.395L39.167,60.78L68.23,60.78L68.23,68.395L68.231,68.395L68.231,75.623ZM72.068,75.622L72.068,31.987C72.068,27.842 68.697,24.471 64.553,24.471L42.847,24.471C38.702,24.471 35.331,27.842 35.331,31.987L35.331,56.94L35.333,56.94L35.333,75.622C35.333,79.768 38.705,83.139 42.847,83.139L64.555,83.139C68.697,83.139 72.068,79.768 72.068,75.622Z" style="fill:rgb(43,118,188);fill-rule:nonzero;"/>
        </g>
        <path d="M53.704,72.018C53.174,72.018 52.678,71.813 52.303,71.438C51.93,71.067 51.726,70.569 51.726,70.041C51.726,68.95 52.61,68.063 53.706,68.063C54.796,68.063 55.681,68.95 55.681,70.041C55.681,71.131 54.794,72.018 53.704,72.018ZM53.702,65.188C51.026,65.188 48.851,67.364 48.851,70.04C48.848,71.338 49.354,72.555 50.27,73.473C51.187,74.387 52.406,74.893 53.704,74.893C56.379,74.893 58.556,72.717 58.556,70.041C58.556,67.364 56.379,65.188 53.702,65.188Z" style="fill:rgb(43,118,188);fill-rule:nonzero;"/>
    </g>
</svg>
